PathFileType	4	(X/Y/Z)	RBDS028static.trc
DataRate	CameraRate	NumFrames	NumMarkers	Units	OrigDataRate	OrigDataStartFrame	OrigNumFrames
150.000000	150.000000	4	48	mm	150.000000	93	150
Frame#	Time	L.Ankle			L.Ankle.Medial			L.ASIS			L.GTR			L.Heel.Bottom			L.Heel.Lateral			L.Heel.Top			L.HF			L.Iliac.Crest			L.Knee			L.Knee.Medial			L.MT1			L.MT2			L.MT5			L.PSIS			L.Shank.Bottom.Lateral			L.Shank.Bottom.Medial			L.Shank.Top.Lateral			L.Shank.Top.Medial			L.Thigh.Bottom.Lateral			L.Thigh.Bottom.Medial			L.Thigh.Top.Lateral			L.Thigh.Top.Medial			L.TT			R.Ankle			R.Ankle.Medial			R.ASIS			R.GTR			R.Heel.Bottom			R.Heel.Lateral			R.Heel.Top			R.HF			R.Iliac.Crest			R.Knee			R.Knee.Medial			R.MT1			R.MT2			R.MT5			R.PSIS			R.Shank.Bottom.Lateral			R.Shank.Bottom.Medial			R.Shank.Top.Lateral			R.Shank.Top.Medial			R.Thigh.Bottom.Lateral			R.Thigh.Bottom.Medial			R.Thigh.Top.Lateral			R.Thigh.Top.Medial			R.TT			
		X1	Y1	Z1	X2	Y2	Z2	X3	Y3	Z3	X4	Y4	Z4	X5	Y5	Z5	X6	Y6	Z6	X7	Y7	Z7	X8	Y8	Z8	X9	Y9	Z9	X10	Y10	Z10	X11	Y11	Z11	X12	Y12	Z12	X13	Y13	Z13	X14	Y14	Z14	X15	Y15	Z15	X16	Y16	Z16	X17	Y17	Z17	X18	Y18	Z18	X19	Y19	Z19	X20	Y20	Z20	X21	Y21	Z21	X22	Y22	Z22	X23	Y23	Z23	X24	Y24	Z24	X25	Y25	Z25	X26	Y26	Z26	X27	Y27	Z27	X28	Y28	Z28	X29	Y29	Z29	X30	Y30	Z30	X31	Y31	Z31	X32	Y32	Z32	X33	Y33	Z33	X34	Y34	Z34	X35	Y35	Z35	X36	Y36	Z36	X37	Y37	Z37	X38	Y38	Z38	X39	Y39	Z39	X40	Y40	Z40	X41	Y41	Z41	X42	Y42	Z42	X43	Y43	Z43	X44	Y44	Z44	X45	Y45	Z45	X46	Y46	Z46	X47	Y47	Z47	X48	Y48	Z48	

94	0.62	712.0092163085938	92.80327606201172	1051.57958984375	730.3651733398438	106.2256011962891	1133.699096679688	833.1602783203125	893.7362060546875	1107.840087890625	786.8548583984375	805.6913452148438	1061.344116210938	638.197265625	39.03510284423828	1087.622436523438	668.346923828125	56.35017013549805	1044.81787109375	649.0789794921875	83.45301818847656	1088.606079101563	743.5089111328125	412.8713989257813	1051.796142578125	769.2074584960938	944.342041015625	1078.77294921875	748.2482299804688	475.7118530273438	1059.213256835938	731.5250244140625	452.7001342773438	1171.976440429688	855.9087524414063	53.49713516235352	1131.994506835938	858.1207275390625	65.84197235107422	1084.617065429688	823.4057006835938	46.65002059936523	1021.389099121094	677.6485595703125	923.7974853515625	1177.988647460938	714.05859375	171.3193969726563	1043.928588867188	673.8285522460938	169.3147583007813	1075.411376953125	705.3357543945313	250.9774475097656	1032.041015625	666.9085693359375	254.0283660888672	1068.631469726563	771.3704223632813	574.565185546875	1040.080688476563	704.331298828125	576.289306640625	1068.84521484375	772.503662109375	684.919189453125	1040.122802734375	710.5798950195313	685.1719970703125	1072.228759765625	789.385498046875	393.298583984375	1103.838745117188	706.8486328125	98.67423248291016	1406.6708984375	726.1602172851563	107.7400436401367	1324.657836914063	827.2642822265625	901.5511474609375	1347.753051757813	777.4266967773438	815.2890014648438	1393.123779296875	636.6400756835938	38.20024108886719	1369.104858398438	666.615234375	59.27294921875	1410.801635742188	646.7453002929688	83.45263671875	1367.578735351563	734.0523071289063	419.9067687988281	1403.57666015625	774.84716796875	962.3228759765625	1367.250244140625	737.2249145507813	482.2685546875	1396.610229492188	732.5009155273438	458.660400390625	1280.342407226563	853.607666015625	53.87421798706055	1331.644409179688	857.9430541992188	64.30853271484375	1379.967529296875	819.68115234375	46.6563606262207	1441.614135742188	677.0975341796875	927.0532836914063	1270.821655273438	704.8419189453125	178.17578125	1414.653564453125	666.1814575195313	177.994140625	1374.301025390625	694.2734375	258.3758850097656	1421.9580078125	658.5576171875	257.5988159179688	1381.7119140625	746.5390625	570.19970703125	1410.896484375	686.973876953125	572.6497192382813	1370.233032226563	749.6041259765625	680.6954345703125	1410.195190429688	692.9453735351563	682.3384399414063	1371.833129882813	778.9639892578125	395.767578125	1358.330688476563	
95	0.6266666666666667	712.009765625	92.80496978759766	1051.588745117188	730.35498046875	106.2341461181641	1133.697875976563	833.1360473632813	893.7564697265625	1107.840087890625	786.8230590820313	805.7052001953125	1061.341430664063	638.2117309570313	39.03361511230469	1087.628295898438	668.3475952148438	56.34412002563477	1044.818481445313	649.09326171875	83.45701599121094	1088.609008789063	743.4993896484375	412.8642272949219	1051.79833984375	769.17236328125	944.3521728515625	1078.772583007813	748.2571411132813	475.70556640625	1059.22607421875	731.5490112304688	452.6901245117188	1171.969482421875	855.9176635742188	53.50815582275391	1131.999755859375	858.1319580078125	65.84326171875	1084.618896484375	823.39306640625	46.6635627746582	1021.387145996094	677.6032104492188	923.7880859375	1178.00439453125	714.06396484375	171.3198547363281	1043.927001953125	673.8258666992188	169.3104095458984	1075.41796875	705.3369750976563	250.9806365966797	1032.0361328125	666.9069213867188	254.0335235595703	1068.6201171875	771.355224609375	574.5733642578125	1040.086303710938	704.3240356445313	576.28662109375	1068.845825195313	772.4833984375	684.9215087890625	1040.124877929688	710.5635375976563	685.168701171875	1072.2255859375	789.378662109375	393.3038024902344	1103.848754882813	707.1034545898438	99.07848358154297	1406.849365234375	726.1884765625	107.7380447387695	1324.662719726563	827.2225341796875	901.5577392578125	1347.751342773438	777.39599609375	815.2942504882813	1393.118896484375	636.6398315429688	38.19585800170898	1369.099853515625	666.61474609375	59.27355194091797	1410.793090820313	646.7446899414063	83.44874572753906	1367.585571289063	734.0625610351563	419.9079895019531	1403.572875976563	774.81103515625	962.3336181640625	1367.255981445313	737.2158203125	482.2683715820313	1396.600830078125	732.5271606445313	458.642333984375	1280.346801757813	853.6151123046875	53.87606811523438	1331.642211914063	857.9371337890625	64.31417083740234	1379.964477539063	819.6775512695313	46.66332244873047	1441.615844726563	677.0557250976563	927.0473022460938	1270.812377929688	704.8455200195313	178.1734924316406	1414.644409179688	666.1812744140625	177.9927825927734	1374.296508789063	694.2703247070313	258.3801879882813	1421.958862304688	658.5590209960938	257.5962524414063	1381.709350585938	746.5228271484375	570.19921875	1410.894409179688	686.9710083007813	572.645751953125	1370.237060546875	749.5821533203125	680.6994018554688	1410.183715820313	692.9263305664063	682.3304443359375	1371.828979492188	778.9776611328125	395.7693786621094	1358.318237304688	
96	0.6333333333333334	712.0114135742188	92.81008148193359	1051.585083007813	730.35986328125	106.2251205444336	1133.702514648438	833.1016845703125	893.7618408203125	1107.843017578125	786.78662109375	805.708740234375	1061.329833984375	638.4472045898438	38.91405487060547	1087.652099609375	668.3452758789063	56.34457015991211	1044.811401367188	649.0902709960938	83.45893096923828	1088.603759765625	743.5285034179688	412.8671264648438	1051.796264648438	769.116943359375	944.3584594726563	1078.791625976563	748.2490234375	475.7052917480469	1059.221313476563	731.5374145507813	452.7058410644531	1171.984375	855.9201049804688	53.50513076782227	1131.989013671875	858.1256713867188	65.84791564941406	1084.614135742188	823.4033813476563	46.66505813598633	1021.392761230469	677.5640258789063	923.77880859375	1178.000732421875	714.0707397460938	171.3208618164063	1043.931030273438	673.8390502929688	169.3115997314453	1075.411865234375	705.3419799804688	250.9759521484375	1032.030395507813	666.9089965820313	254.0310821533203	1068.628173828125	771.3618774414063	574.5748291015625	1040.08642578125	704.3244018554688	576.27490234375	1068.84326171875	772.47900390625	684.9195556640625	1040.125732421875	710.546875	685.1556396484375	1072.226684570313	789.3895263671875	393.3101501464844	1103.852783203125	706.8464965820313	98.68214416503906	1406.668701171875	726.174072265625	107.7406997680664	1324.66650390625	827.176025390625	901.564453125	1347.752319335938	777.3458862304688	815.4068603515625	1393.354614257813	636.6339111328125	38.20120239257813	1369.105346679688	666.620849609375	59.27495193481445	1410.805786132813	646.7447509765625	83.44886016845703	1367.581420898438	734.0650024414063	419.9081420898438	1403.573852539063	774.7671508789063	962.3327026367188	1367.268920898438	737.2215576171875	482.2639465332031	1396.599487304688	732.51904296875	458.656982421875	1280.340087890625	853.6114501953125	53.87182235717773	1331.6416015625	857.9417724609375	64.306396484375	1379.961181640625	819.6880493164063	46.65205764770508	1441.6240234375	677.0164184570313	927.038330078125	1270.8193359375	704.83544921875	178.1736907958984	1414.647338867188	666.1806640625	177.9858856201172	1374.294311523438	694.2661743164063	258.3750915527344	1421.951538085938	658.5607299804688	257.595947265625	1381.705322265625	746.5137939453125	570.1978149414063	1410.893188476563	686.9638061523438	572.6387329101563	1370.22021484375	749.561767578125	680.7006225585938	1410.184936523438	692.9056396484375	682.33203125	1371.832275390625	778.9708862304688	395.7719421386719	1358.31982421875	
97	0.64	712.0028686523438	92.79978179931641	1051.58984375	730.352294921875	106.2310180664063	1133.698974609375	833.080810546875	893.7669677734375	1107.848999023438	786.7623901367188	805.705810546875	1061.349853515625	638.2037353515625	39.03218841552734	1087.624633789063	668.3485717773438	56.34246063232422	1044.820434570313	649.099609375	83.45146179199219	1088.606079101563	743.5214233398438	412.8564453125	1051.810913085938	769.0751953125	944.3515014648438	1078.790405273438	748.2439575195313	475.7092590332031	1059.235473632813	731.5549926757813	452.6862182617188	1171.978515625	855.9221801757813	53.49711990356445	1131.992919921875	858.130859375	65.85063934326172	1084.6201171875	823.4010620117188	46.65668106079102	1021.40087890625	677.5201416015625	923.7550048828125	1177.993774414063	714.0737915039063	171.3151092529297	1043.929443359375	673.8379516601563	169.3012084960938	1075.409912109375	705.341064453125	250.9769744873047	1032.036499023438	666.9027709960938	254.0248565673828	1068.622192382813	771.353271484375	574.572021484375	1040.08935546875	704.3212890625	576.2648315429688	1068.844604492188	772.46044921875	684.9193115234375	1040.123046875	710.5340576171875	685.147216796875	1072.226806640625	789.3983154296875	393.3072204589844	1103.85498046875	706.8424682617188	98.68489074707031	1406.666748046875	726.1852416992188	107.7351455688477	1324.676879882813	827.1431884765625	901.5654296875	1347.757202148438	777.3296508789063	815.3056030273438	1393.115356445313	636.6351928710938	38.19406127929688	1369.102783203125	666.6286010742188	59.27473068237305	1410.80712890625	646.7499389648438	83.44181060791016	1367.581298828125	734.065673828125	419.9002075195313	1403.568115234375	774.728271484375	962.3359375	1367.267333984375	737.215087890625	482.2763977050781	1396.599975585938	732.5303955078125	458.650146484375	1280.343139648438	853.6093139648438	53.87226104736328	1331.6376953125	857.9393920898438	64.30416107177734	1379.961303710938	819.6869506835938	46.65625762939453	1441.615356445313	676.9741821289063	927.0227661132813	1270.810424804688	704.8279418945313	178.1800994873047	1414.650146484375	666.1852416992188	177.9827880859375	1374.287963867188	694.268310546875	258.3760681152344	1421.943725585938	658.5578002929688	257.5790100097656	1381.70654296875	746.5081787109375	570.1981201171875	1410.887573242188	686.9530029296875	572.6390991210938	1370.218139648438	749.5369873046875	680.6910400390625	1410.187866210938	692.8833618164063	682.3275756835938	1371.819946289063	778.9807739257813	395.7679748535156	1358.322265625	
